Coordinates
version=1
nRows=19
nColumns=36
inDegrees=yes

Units are S.I. units (second, meters, Newtons, ...)
If the header above contains a line with 'inDegrees', this indicates whether rotational values are in degrees (yes) or radians (no).

endheader
time	pelvis_tilt	pelvis_list	pelvis_rotation	pelvis_tx	pelvis_ty	pelvis_tz	hip_flexion_r	hip_adduction_r	hip_rotation_r	knee_angle_r	knee_angle_r_beta	ankle_angle_r	subtalar_angle_r	mtp_angle_r	hip_flexion_l	hip_adduction_l	hip_rotation_l	knee_angle_l	knee_angle_l_beta	ankle_angle_l	subtalar_angle_l	mtp_angle_l	lumbar_extension	lumbar_bending	lumbar_rotation	arm_flex_r	arm_add_r	arm_rot_r	elbow_flex_r	pro_sup_r	arm_flex_l	arm_add_l	arm_rot_l	elbow_flex_l	pro_sup_l
      1.46000000	      4.86245302	     -2.37195132	      6.43677077	     -0.41036975	      1.21164217	     -0.57705234	     11.80588799	     -1.28750082	    -17.91774134	     10.07705291	      0.17587775	    -22.93520429	      4.38983005	     -7.61395313	     12.71094449	     -6.11819377	     -9.77250045	      9.26323810	      0.16167400	    -25.92609123	      8.06718046	     -7.61395313	     -9.11692376	     -0.45036572	    -24.25055822	    178.64494227	    -80.04070513	    117.08079582	     93.56602317	    110.25862194	     81.41739134	   -167.21208010	     37.24547798	    108.91779772	     72.63002774
      1.47000000	      5.66251651	     -2.43277150	      6.72938004	     -0.40039741	      1.18909224	     -0.57689395	     12.23045681	     -1.50665450	    -17.48311661	     13.10118750	      0.22865886	    -24.34274849	      1.54018949	     -7.60184443	     13.53632182	     -6.38974877	     -8.43534322	     12.43512236	      0.21703383	    -26.88776826	      6.63318433	     -7.60184443	    -10.01418907	     -0.69677173	    -25.20856032	    177.40290764	    -84.73986309	    115.32145327	     97.21021725	    108.38968436	     83.67321469	   -170.81511701	     41.96005757	    109.56333765	     72.39578774
      1.48000000	      6.33463762	     -2.33414456	      6.95122701	     -0.39029002	      1.16553540	     -0.57558045	     12.96201272	     -1.78285135	    -16.52646755	     16.67104340	      0.29096460	    -25.18659161	     -0.65019332	     -7.59777745	     14.62681266	     -6.51698779	     -6.96638121	     15.95406160	      0.27845090	    -27.87873451	      6.24140671	     -7.59777745	    -13.38488763	      1.62085153	     -6.56033809	     84.45782487	   -132.82354055	     23.40422247	    107.92025992	    100.94862445	     89.72218593	   -148.90375564	     49.42177234	    113.54223057	     73.13357523
      1.49000000	      7.02329206	     -2.32341555	      6.99464471	     -0.38100137	      1.14104965	     -0.57518941	     14.04221626	     -1.95825038	    -15.04852621	     20.51665939	      0.35808326	    -26.81812816	     -2.03669658	     -7.59376921	     15.83402455	     -6.48334843	     -4.91040799	     19.55671161	      0.34132901	    -29.21108888	      5.38076839	     -7.59376921	    -14.46387033	      1.59758046	     -6.31483125	     91.14662000	   -134.74554121	     29.37265591	    111.45919631	    101.05344507	     93.14434274	   -151.29247071	     56.37322263	    113.87116185	     73.40318342
      1.50000000	      7.50455029	     -2.23800265	      6.89072883	     -0.37209451	      1.11533827	     -0.57456470	     15.65863834	     -2.16562219	    -13.32870289	     24.63383356	      0.42994150	    -28.19732439	     -2.75736261	     -7.59032381	     17.40908145	     -6.27705144	     -3.02793527	     23.78772469	      0.41517412	    -28.73829105	      3.73330231	     -7.59032381	    -15.39683921	      1.45374781	     -5.98662020	     97.54264158	   -136.97627989	     35.59357805	    114.86119568	    101.14012345	     96.50200600	   -153.69284817	     63.60903330	    113.78552410	     73.63130122
      1.51000000	      7.91569247	     -2.10168733	      6.65604501	     -0.36367493	      1.08832627	     -0.57367886	     17.56524285	     -2.36038479	    -11.71929206	     29.99460881	      0.52350468	    -25.26008529	     -4.16620846	     -7.58227562	     19.23613902	     -6.10781672	     -1.90175440	     29.70734267	      0.51849094	    -22.82246543	      1.19916996	     -7.58227562	    -16.27648043	      1.12825438	     -6.03443552	    103.82849588	   -138.63265985	     42.43786472	    117.98549581	    100.93621218	     99.30970661	   -156.61003951	     70.78803188	    113.10938091	     74.25300889
      1.52000000	      8.52719065	     -2.02401234	      6.30400330	     -0.35567410	      1.06045659	     -0.57256386	     19.10705254	     -2.31585079	    -10.15256418	     36.73401913	      0.64112958	    -14.93485318	     -5.55112470	     -7.57301642	     20.91906890	     -6.21504653	     -1.42264773	     37.10429582	      0.64759213	    -11.23268828	     -0.31173969	     -7.57301642	    -17.34504686	      0.89818597	     -5.84883524	    109.47539463	   -140.60816591	     49.20243828	    120.84874169	    100.19728511	    101.95036361	   -158.91286626	     78.16245144	    111.88134559	     74.60196942
      1.53000000	      9.00818533	     -2.07731709	      5.92796666	     -0.34849045	      1.03266845	     -0.57124242	     20.47713354	     -1.85629777	     -8.44817622	     43.34943159	      0.75659031	     -2.37108074	     -6.47009681	     -7.56798138	     22.60129613	     -6.46544728	     -1.03159884	     44.02995800	      0.76846774	      0.01004235	     -0.90838285	     -7.56798138	    -18.21096636	      0.76798755	     -5.70666403	    115.10833584	   -142.47277009	     56.28767834	    123.51992412	    100.07551183	    104.71726017	   -160.85263303	     85.57111214	    110.27325441	     74.96949158
      1.54000000	      8.98481321	     -2.20320557	      5.64916602	     -0.34219963	      1.00677407	     -0.56970486	     21.88234410	     -1.20966064	     -7.21258423	     48.10283143	      0.83955279	      7.69920267	     -6.71144134	     -7.56628006	     24.61246412	     -6.70974220	     -0.80912328	     49.54895901	      0.86479248	      8.18810618	     -1.30020755	     -7.56628006	    -18.49567335	      0.55590641	     -6.16893025	    121.92109084	   -143.90323509	     64.99788059	    125.70401619	    101.40138391	    107.88248096	   -163.04075577	     92.80283809	    107.96567118	     76.41228998
      1.55000000	      7.68625717	     -2.63709055	      5.35131586	     -0.33653807	      0.98254578	     -0.56782295	     24.21042148	     -0.20276384	     -6.68524643	     51.06326037	      0.89122202	     14.54371940	     -8.51148551	     -7.56698424	     27.76613227	     -7.08933065	     -0.65250514	     53.95341578	      0.94166475	     14.05166843	     -2.45086189	     -7.56698424	    -17.24416545	      0.56009000	     -6.57958757	    129.21761667	   -146.09924733	     74.74336686	    127.06336756	    103.18263403	    111.86927370	   -164.90706001	    100.18204839	    104.90062778	     78.06168961
      1.56000000	      6.31357167	     -3.20401393	      5.03309158	     -0.33182023	      0.96144455	     -0.56604491	     26.32999039	      0.98823605	     -6.48715677	     53.23701630	      0.92916122	     19.74262964	    -10.92906099	     -7.56859195	     30.77650548	     -7.50527331	     -0.40104432	     57.80079394	      1.00881416	     18.95823480	     -3.66039677	     -7.56859195	    -15.94897456	      0.77843014	     -6.89657126	    136.46347008	   -148.93725719	     84.52338600	    127.05810341	    104.90605955	    116.66019121	   -166.45876012	    107.34038914	    100.97450062	     79.66650942
      1.57000000	      5.52330665	     -3.62386784	      4.74245623	     -0.32900100	      0.94389009	     -0.56476209	     28.53300983	      2.05145449	     -5.78058824	     56.31335802	      0.98285351	     22.64079773	    -13.15193253	     -7.57121367	     33.04051516	     -7.60162246	      0.24646450	     61.16299123	      1.06749558	     22.45559287	     -4.98071449	     -7.57121367	    -15.59615374	      1.09450947	     -6.67919838	    142.79462349	   -152.52885393	     92.85722689	    125.88452443	    106.46514804	    122.55952734	   -167.19235977	    114.39157824	     96.50179487	     80.54824848
      1.58000000	      5.29301582	     -3.68967988	      4.58168826	     -0.32822053	      0.92945551	     -0.56385848	     31.28087540	      2.74123736	     -4.38799029	     60.81438316	      1.06141122	     23.18278482	    -14.77044672	     -7.57443461	     34.70811501	     -7.15631077	      1.29758992	     64.13376901	      1.11934543	     24.50550741	     -6.23070309	     -7.57443461	    -16.26999365	      1.18235122	     -6.32704902	    148.48366509	   -156.30601760	    100.37387074	    123.88290401	    108.03740134	    129.20526114	   -167.53081160	    121.13905416	     91.79353114	     81.03855847
      1.59000000	      5.06211564	     -3.67685109	      4.55079759	     -0.32845788	      0.91671865	     -0.56323656	     34.28221435	      3.21653044	     -3.13995683	     65.39381795	      1.14133743	     22.65918064	    -15.79558000	     -7.57772266	     36.58276652	     -6.42268303	      2.73466709	     67.12722502	      1.17159109	     25.33263409	     -7.35127599	     -7.57772266	    -17.20608793	      1.17893010	     -6.12920104	    153.72532360	   -159.75592964	    107.56058128	    121.08423237	    109.52826618	    135.99959315	   -168.15391630	    127.14874861	     87.48941562	     81.55022670
      1.60000000	      4.95837422	     -3.82452243	      4.50845074	     -0.32890653	      0.90565201	     -0.56284052	     36.29710404	      3.82863698	     -2.35590494	     68.58486518	      1.19703171	     22.80609091	    -16.57088078	     -7.57678241	     38.34032450	     -5.87779227	      4.05855253	     70.00392849	      1.22179904	     25.72380950	     -8.41861150	     -7.57678241	    -18.43917535	      1.39610232	     -5.75661012	    158.35211571	   -162.58430354	    114.25516403	    118.29816994	    109.44932429	    142.66974454	   -168.82451749	    132.92904035	     83.92508308	     81.38032572
      1.61000000	      4.86621551	     -4.02680172	      4.42774149	     -0.32953737	      0.89606350	     -0.56244263	     37.41515010	      4.50498835	     -1.89656806	     70.37154504	      1.22821516	     23.60028532	    -17.60037191	     -7.57596702	     39.81972318	     -5.60579778	      4.85356111	     72.36528937	      1.26301256	     26.12537434	     -9.38629081	     -7.57596702	    -19.71301881	      1.67733171	     -5.41597800	    162.57207184	   -164.53199800	    120.96918245	    115.65918451	    109.57810390	    148.81633649	   -169.44226176	    138.45832475	     81.38634435	     81.31596602
      1.62000000	      4.58315558	     -4.03726232	      4.51509974	     -0.33052600	      0.88793447	     -0.56206812	     38.31842038	      4.80569283	     -1.70843776	     71.46683666	      1.24733161	     24.32467448	    -18.66292183	     -7.57439489	     41.05203893	     -5.18493923	      5.31998582	     73.91367026	      1.29003691	     26.57962060	    -10.21144692	     -7.57439489	    -20.79146457	      1.75151952	     -5.60139201	    166.86653477	   -165.77549184	    128.13730450	    113.14307679	    109.91645489	    154.28355572	   -169.67193955	    143.92641328	     79.69756029	     81.57342437
      1.63000000	      4.18017137	     -3.87002092	      4.58833117	     -0.33182030	      0.88119965	     -0.56156154	     39.25110499	      4.88249961	     -1.46225860	     72.40884282	      1.26377271	     25.19056124	    -19.38971154	     -7.57286702	     42.01948179	     -4.76014028	      5.43791189	     74.83922375	      1.30619086	     27.35161181	    -10.67944934	     -7.57286702	    -21.75126200	      1.52397637	     -5.51346597	    170.99618044	   -166.60329789	    134.40911411	    110.47900494	    110.22188838	    159.82306208	   -169.43996226	    149.51144128	     78.76453649	     81.96442764
      1.64000000	      3.55748142	     -3.76977280	      4.59679550	     -0.33352615	      0.87528426	     -0.56112449	     40.50418184	      4.96349116	     -1.21789129	     73.36421677	      1.28044714	     25.81612903	    -19.81370232	     -7.57192110	     43.16312857	     -4.46881384	      5.50638482	     75.56888541	      1.31892586	     27.96626275	    -10.96825958	     -7.57192110	    -22.44761311	      1.33063476	     -5.15353559	    174.98416858	   -166.79783693	    140.24311276	    108.24056106	    110.42864854	    165.53151790	   -169.07297804	    155.02424238	     78.34897306	     82.29520663
